<svg width="35" height="35" viewBox="0 0 35 35" fill="none" xmlns="http://www.w3.org/2000/svg">
<path fill-rule="evenodd" clip-rule="evenodd" d="M8.70532 3.82324H1.91666V6.65658H6.47549L10.3997 24.6171H10.4167V25.0732H28.8333V24.7219L31.9401 11.0355L32.4189 9.48991H9.92791L9.12041 5.79099L8.70532 3.82324ZM28.8149 12.3232H10.547L12.7131 22.2399H26.5638L28.8149 12.3232Z" fill="white"/>
<path d="M14.6667 32.1566C15.4181 32.1566 16.1388 31.8581 16.6701 31.3267C17.2015 30.7954 17.5 30.0747 17.5 29.3233C17.5 28.5718 17.2015 27.8511 16.6701 27.3198C16.1388 26.7884 15.4181 26.4899 14.6667 26.4899C13.9152 26.4899 13.1946 26.7884 12.6632 27.3198C12.1319 27.8511 11.8333 28.5718 11.8333 29.3233C11.8333 30.0747 12.1319 30.7954 12.6632 31.3267C13.1946 31.8581 13.9152 32.1566 14.6667 32.1566ZM27.4167 29.3233C27.4167 30.0747 27.1182 30.7954 26.5868 31.3267C26.0555 31.8581 25.3348 32.1566 24.5833 32.1566C23.8319 32.1566 23.1112 31.8581 22.5799 31.3267C22.0485 30.7954 21.75 30.0747 21.75 29.3233C21.75 28.5718 22.0485 27.8511 22.5799 27.3198C23.1112 26.7884 23.8319 26.4899 24.5833 26.4899C25.3348 26.4899 26.0555 26.7884 26.5868 27.3198C27.1182 27.8511 27.4167 28.5718 27.4167 29.3233Z" fill="white"/>
</svg>
