<svg width="17" height="16" viewBox="0 0 17 16" fill="none" xmlns="http://www.w3.org/2000/svg">
<path d="M0.549458 5.63406L5.64573 4.90408L7.92389 0.352135C7.98612 0.227506 8.08848 0.126615 8.21494 0.0652895C8.53207 -0.0890138 8.91746 0.0395723 9.07603 0.352135L11.3542 4.90408L16.4505 5.63406C16.591 5.65384 16.7194 5.71912 16.8178 5.81803C16.9367 5.93848 17.0022 6.10053 16.9999 6.26856C16.9977 6.4366 16.9278 6.59688 16.8057 6.71418L13.1185 10.2572L13.9896 15.2602C14.0101 15.3766 13.997 15.4963 13.9519 15.6057C13.9068 15.7151 13.8315 15.8099 13.7346 15.8793C13.6376 15.9488 13.5229 15.99 13.4033 15.9984C13.2838 16.0068 13.1643 15.982 13.0583 15.9269L8.49996 13.5648L3.94162 15.9269C3.81717 15.9922 3.67265 16.0139 3.53416 15.9902C3.1849 15.9308 2.95006 15.6044 3.01028 15.2602L3.8814 10.2572L0.194184 6.71418C0.0938245 6.61724 0.0275873 6.49064 0.00751532 6.35216C-0.046679 6.00597 0.198199 5.68549 0.549458 5.63406Z" fill="#FFC226"/>
</svg>
